<svg xmlns="http://www.w3.org/2000/svg" xmlns:xlink="http://www.w3.org/1999/xlink" version="1.1" width="1000" height="1000" viewBox="0 0 1000 1000" xml:space="preserve">
<desc>Created with Fabric.js 3.5.0</desc>
<defs>
</defs>
<rect x="0" y="0" width="100%" height="100%" fill="rgba(255,255,255,0)"/>
<g transform="matrix(1.2626 0 0 1.2626 499.9916 499.9905)" id="86768">
<path style="stroke: none; stroke-width: 1; stroke-dasharray: none; stroke-linecap: butt; stroke-dashoffset: 0; stroke-linejoin: miter; stroke-miterlimit: 4; is-custom-font: none; font-file-url: none; fill: rgb(255,255,255); fill-rule: nonzero; opacity: 1;" vector-effect="non-scaling-stroke" transform=" translate(-480, -576)" d="M 261 936 q -24.75 0 -42.375 -17.625 T 201 876 V 306 h -41 v -60 h 188 v -30 h 264 v 30 h 188 v 60 h -41 v 570 q 0 24 -18 42 t -42 18 H 261 Z m 438 -630 H 261 v 570 h 438 V 306 Z M 367 790 h 60 V 391 h -60 v 399 Z m 166 0 h 60 V 391 h -60 v 399 Z M 261 306 v 570 v -570 Z" stroke-linecap="round"/>
</g>
</svg>